  <svg width="76" height="19" viewBox="0 0 76 19" fill="none" xmlns="http://www.w3.org/2000/svg">
                    <rect x="0.130203" y="0.590088" width="75.5322" height="17.6877" rx="1.33597" fill="#285A43"/>
                    <path d="M24.9965 11.2793C25.1523 11.2793 25.2832 11.2606 25.3892 11.2232C25.4952 11.1858 25.5794 11.1359 25.6417 11.0736C25.7062 11.0113 25.7519 10.9385 25.7789 10.8554C25.808 10.7723 25.8225 10.6839 25.8225 10.5904C25.8225 10.4927 25.8069 10.4055 25.7758 10.3286C25.7446 10.2496 25.6958 10.1831 25.6293 10.1291C25.5628 10.073 25.4765 10.0304 25.3705 10.0013C25.2666 9.97217 25.1409 9.95762 24.9933 9.95762H24.1486V11.2793H24.9965ZM24.1486 8.0748V9.37781H24.8157C25.1024 9.37781 25.3186 9.32586 25.4641 9.22195C25.6116 9.11804 25.6854 8.95282 25.6854 8.7263C25.6854 8.49147 25.6189 8.32418 25.4859 8.22442C25.3529 8.12467 25.1451 8.0748 24.8624 8.0748H24.1486ZM24.8624 7.42641C25.1575 7.42641 25.41 7.45446 25.6199 7.51057C25.8298 7.56668 26.0013 7.64669 26.1343 7.7506C26.2693 7.85451 26.3681 7.98024 26.4304 8.12779C26.4927 8.27534 26.5239 8.44159 26.5239 8.62655C26.5239 8.73254 26.5083 8.83437 26.4772 8.93204C26.446 9.02764 26.3971 9.11804 26.3306 9.20324C26.2662 9.28637 26.1831 9.36222 26.0813 9.4308C25.9815 9.49938 25.862 9.55757 25.7228 9.60537C26.3421 9.74461 26.6517 10.0792 26.6517 10.6091C26.6517 10.8003 26.6154 10.977 26.5426 11.1391C26.4699 11.3012 26.3639 11.4414 26.2247 11.5599C26.0854 11.6763 25.914 11.7677 25.7103 11.8342C25.5067 11.9007 25.2739 11.934 25.012 11.934H23.31V7.42641H24.8624ZM28.7893 8.68578C29.0262 8.68578 29.2413 8.72422 29.4346 8.80112C29.63 8.87801 29.7962 8.98711 29.9334 9.12843C30.0726 9.26974 30.1796 9.44223 30.2544 9.64589C30.3293 9.84955 30.3667 10.0771 30.3667 10.3286C30.3667 10.5821 30.3293 10.8107 30.2544 11.0144C30.1796 11.218 30.0726 11.3916 29.9334 11.535C29.7962 11.6783 29.63 11.7885 29.4346 11.8654C29.2413 11.9423 29.0262 11.9807 28.7893 11.9807C28.5503 11.9807 28.3332 11.9423 28.1378 11.8654C27.9425 11.7885 27.7752 11.6783 27.6359 11.535C27.4988 11.3916 27.3918 11.218 27.3149 11.0144C27.2401 10.8107 27.2027 10.5821 27.2027 10.3286C27.2027 10.0771 27.2401 9.84955 27.3149 9.64589C27.3918 9.44223 27.4988 9.26974 27.6359 9.12843C27.7752 8.98711 27.9425 8.87801 28.1378 8.80112C28.3332 8.72422 28.5503 8.68578 28.7893 8.68578ZM28.7893 11.3884C29.0553 11.3884 29.2517 11.2991 29.3785 11.1204C29.5073 10.9416 29.5718 10.6798 29.5718 10.3348C29.5718 9.98983 29.5073 9.72694 29.3785 9.54614C29.2517 9.36534 29.0553 9.27494 28.7893 9.27494C28.5192 9.27494 28.3186 9.36638 28.1877 9.54926C28.0589 9.73006 27.9944 9.99191 27.9944 10.3348C27.9944 10.6777 28.0589 10.9396 28.1877 11.1204C28.3186 11.2991 28.5192 11.3884 28.7893 11.3884ZM32.494 8.68578C32.7309 8.68578 32.946 8.72422 33.1393 8.80112C33.3346 8.87801 33.5009 8.98711 33.638 9.12843C33.7773 9.26974 33.8843 9.44223 33.9591 9.64589C34.0339 9.84955 34.0713 10.0771 34.0713 10.3286C34.0713 10.5821 34.0339 10.8107 33.9591 11.0144C33.8843 11.218 33.7773 11.3916 33.638 11.535C33.5009 11.6783 33.3346 11.7885 33.1393 11.8654C32.946 11.9423 32.7309 11.9807 32.494 11.9807C32.255 11.9807 32.0378 11.9423 31.8425 11.8654C31.6471 11.7885 31.4799 11.6783 31.3406 11.535C31.2035 11.3916 31.0964 11.218 31.0195 11.0144C30.9447 10.8107 30.9073 10.5821 30.9073 10.3286C30.9073 10.0771 30.9447 9.84955 31.0195 9.64589C31.0964 9.44223 31.2035 9.26974 31.3406 9.12843C31.4799 8.98711 31.6471 8.87801 31.8425 8.80112C32.0378 8.72422 32.255 8.68578 32.494 8.68578ZM32.494 11.3884C32.76 11.3884 32.9564 11.2991 33.0832 11.1204C33.212 10.9416 33.2764 10.6798 33.2764 10.3348C33.2764 9.98983 33.212 9.72694 33.0832 9.54614C32.9564 9.36534 32.76 9.27494 32.494 9.27494C32.2238 9.27494 32.0233 9.36638 31.8924 9.54926C31.7635 9.73006 31.6991 9.99191 31.6991 10.3348C31.6991 10.6777 31.7635 10.9396 31.8924 11.1204C32.0233 11.2991 32.2238 11.3884 32.494 11.3884ZM35.5534 7.30172V9.9545H35.6968C35.7487 9.9545 35.7893 9.94827 35.8184 9.9358C35.8495 9.92125 35.8807 9.8932 35.9119 9.85163L36.7068 8.8697C36.74 8.82605 36.7764 8.7928 36.8159 8.76994C36.8574 8.74708 36.9104 8.73565 36.9749 8.73565H37.6794L36.685 9.92333C36.6143 10.0168 36.5374 10.0885 36.4543 10.1384C36.4979 10.1696 36.5364 10.206 36.5696 10.2475C36.6049 10.2891 36.6382 10.3338 36.6694 10.3816L37.7355 11.934H37.0403C36.9801 11.934 36.9281 11.9246 36.8845 11.9059C36.8408 11.8851 36.8045 11.8488 36.7754 11.7968L35.9586 10.5842C35.9295 10.5364 35.8994 10.5052 35.8682 10.4907C35.8371 10.4761 35.7903 10.4688 35.728 10.4688H35.5534V11.934H34.7834V7.30172H35.5534ZM43.8007 7.42641V11.934H43.3705C43.304 11.934 43.2479 11.9236 43.2022 11.9028C43.1585 11.8799 43.1159 11.8425 43.0744 11.7906L40.7208 8.78553C40.7333 8.92269 40.7395 9.04946 40.7395 9.16584V11.934H40.0007V7.42641H40.4403C40.4756 7.42641 40.5057 7.42848 40.5307 7.43264C40.5577 7.43472 40.5806 7.44095 40.5993 7.45134C40.62 7.45966 40.6398 7.47317 40.6585 7.49187C40.6772 7.50849 40.698 7.53135 40.7208 7.56045L43.0837 10.578C43.0775 10.5052 43.0723 10.4335 43.0681 10.3629C43.064 10.2922 43.0619 10.2267 43.0619 10.1665V7.42641H43.8007ZM46.1254 8.68578C46.3623 8.68578 46.5774 8.72422 46.7707 8.80112C46.966 8.87801 47.1323 8.98711 47.2695 9.12843C47.4087 9.26974 47.5157 9.44223 47.5905 9.64589C47.6653 9.84955 47.7028 10.0771 47.7028 10.3286C47.7028 10.5821 47.6653 10.8107 47.5905 11.0144C47.5157 11.218 47.4087 11.3916 47.2695 11.535C47.1323 11.6783 46.966 11.7885 46.7707 11.8654C46.5774 11.9423 46.3623 11.9807 46.1254 11.9807C45.8864 11.9807 45.6693 11.9423 45.4739 11.8654C45.2786 11.7885 45.1113 11.6783 44.972 11.535C44.8349 11.3916 44.7279 11.218 44.651 11.0144C44.5761 10.8107 44.5387 10.5821 44.5387 10.3286C44.5387 10.0771 44.5761 9.84955 44.651 9.64589C44.7279 9.44223 44.8349 9.26974 44.972 9.12843C45.1113 8.98711 45.2786 8.87801 45.4739 8.80112C45.6693 8.72422 45.8864 8.68578 46.1254 8.68578ZM46.1254 11.3884C46.3914 11.3884 46.5878 11.2991 46.7146 11.1204C46.8434 10.9416 46.9079 10.6798 46.9079 10.3348C46.9079 9.98983 46.8434 9.72694 46.7146 9.54614C46.5878 9.36534 46.3914 9.27494 46.1254 9.27494C45.8553 9.27494 45.6547 9.36638 45.5238 9.54926C45.3949 9.73006 45.3305 9.99191 45.3305 10.3348C45.3305 10.6777 45.3949 10.9396 45.5238 11.1204C45.6547 11.2991 45.8553 11.3884 46.1254 11.3884ZM52.9268 8.73565L51.9106 11.934H51.2934C51.2227 11.934 51.1739 11.8882 51.1469 11.7968L50.5733 9.94827C50.5546 9.88592 50.5369 9.82462 50.5203 9.76435C50.5058 9.702 50.4933 9.63966 50.4829 9.57731C50.4704 9.63966 50.4559 9.70304 50.4393 9.76747C50.4247 9.82981 50.4081 9.89216 50.3894 9.9545L49.8065 11.7968C49.7815 11.8882 49.7265 11.934 49.6412 11.934H49.049L48.0359 8.73565H48.65C48.7061 8.73565 48.7539 8.74916 48.7934 8.77618C48.8328 8.8032 48.8588 8.83749 48.8713 8.87905L49.3295 10.5873C49.3524 10.6808 49.3721 10.7723 49.3888 10.8616C49.4075 10.951 49.423 11.0403 49.4355 11.1297C49.4584 11.0403 49.4823 10.951 49.5072 10.8616C49.5342 10.7723 49.5623 10.6808 49.5914 10.5873L50.1213 8.87281C50.1338 8.83125 50.1577 8.79696 50.193 8.76994C50.2304 8.74293 50.2751 8.72942 50.327 8.72942H50.6668C50.7209 8.72942 50.7666 8.74293 50.804 8.76994C50.8435 8.79696 50.8694 8.83125 50.8819 8.87281L51.3963 10.5873C51.4233 10.6808 51.4482 10.7733 51.4711 10.8647C51.496 10.9541 51.5199 11.0435 51.5428 11.1328C51.5698 10.9562 51.6082 10.7743 51.6581 10.5873L52.1288 8.87905C52.1434 8.83749 52.1693 8.8032 52.2068 8.77618C52.2442 8.74916 52.2888 8.73565 52.3408 8.73565H52.9268Z" fill="white"/>
                    </svg>