<svg width="45" height="15" viewBox="0 0 45 15" fill="none" xmlns="http://www.w3.org/2000/svg">
<path d="M0.806366 1.53479C0.806366 0.796955 1.4045 0.198822 2.14233 0.198822H42.8459C43.5837 0.198822 44.1818 0.796955 44.1818 1.53479V12.988C44.1818 13.7258 43.5837 14.324 42.8459 14.324H2.14233C1.4045 14.324 0.806366 13.7258 0.806366 12.988V1.53479Z" fill="#337A5B"/>
<path d="M13.3886 9.14684C13.5169 9.14684 13.622 9.1317 13.7039 9.10142C13.7876 9.06935 13.8544 9.02749 13.9043 8.97583C13.9542 8.92418 13.9889 8.86539 14.0085 8.79949C14.0281 8.7318 14.0379 8.66233 14.0379 8.59108C14.0379 8.5127 14.0263 8.44234 14.0031 8.37999C13.98 8.31765 13.9426 8.2651 13.8909 8.22235C13.8393 8.17782 13.7716 8.14397 13.6879 8.12082C13.6059 8.09766 13.5044 8.08608 13.3833 8.08608H12.7019V9.14684H13.3886ZM12.7019 6.49361V7.54101H13.2283C13.3405 7.54101 13.4403 7.5321 13.5275 7.51429C13.6148 7.49469 13.6879 7.46441 13.7466 7.42344C13.8054 7.38247 13.85 7.32903 13.8802 7.26312C13.9123 7.19544 13.9283 7.11439 13.9283 7.01998C13.9283 6.92379 13.915 6.84185 13.8883 6.77416C13.8633 6.70647 13.8241 6.65214 13.7707 6.61117C13.7173 6.5702 13.6496 6.54081 13.5676 6.523C13.4857 6.5034 13.3886 6.49361 13.2764 6.49361H12.7019ZM13.2764 5.88441C13.5365 5.88441 13.7582 5.90934 13.9417 5.95922C14.1269 6.00732 14.2775 6.07679 14.3933 6.16763C14.5108 6.2567 14.5963 6.36535 14.6498 6.49361C14.7032 6.62186 14.7299 6.76525 14.7299 6.92379C14.7299 7.01285 14.7166 7.09836 14.6898 7.18029C14.6649 7.26223 14.6248 7.33972 14.5696 7.41275C14.5162 7.484 14.4467 7.54902 14.3612 7.6078C14.2757 7.66659 14.1742 7.71646 14.0566 7.75743C14.3202 7.81978 14.5153 7.92131 14.6417 8.06203C14.7682 8.20275 14.8314 8.38534 14.8314 8.60978C14.8314 8.77366 14.7994 8.92596 14.7353 9.06668C14.6729 9.2074 14.5812 9.32942 14.46 9.43274C14.3389 9.53605 14.1893 9.6171 14.0112 9.67588C13.8348 9.73288 13.6317 9.76138 13.402 9.76138H11.9003V5.88441H13.2764ZM17.7134 7.00662V9.76138H17.2592C17.1647 9.76138 17.1042 9.71863 17.0775 9.63313L17.0294 9.44075C16.9741 9.49419 16.9171 9.54318 16.8584 9.58771C16.7996 9.63224 16.7363 9.67054 16.6687 9.7026C16.6027 9.73466 16.5306 9.7596 16.4522 9.77741C16.3756 9.79523 16.2919 9.80413 16.2011 9.80413C16.0514 9.80413 15.9178 9.77831 15.8003 9.72665C15.6845 9.67499 15.5874 9.60285 15.509 9.51022C15.4307 9.41759 15.371 9.30715 15.33 9.1789C15.289 9.05065 15.2686 8.90993 15.2686 8.75674V7.00662H16.006V8.75674C16.006 8.90993 16.0407 9.02927 16.1102 9.11477C16.1815 9.1985 16.2866 9.24036 16.4255 9.24036C16.5288 9.24036 16.6259 9.21809 16.7167 9.17356C16.8076 9.12724 16.894 9.0649 16.9759 8.98652V7.00662H17.7134ZM20.8764 7.00662L19.3909 10.5015C19.3677 10.5514 19.3392 10.5888 19.3054 10.6137C19.2733 10.6387 19.2216 10.6511 19.1504 10.6511H18.6026L19.1237 9.53961L18.0175 7.00662H18.6641C18.7229 7.00662 18.7683 7.01998 18.8004 7.0467C18.8324 7.07342 18.8556 7.10459 18.8698 7.14022L19.3935 8.45748C19.4131 8.50914 19.43 8.56168 19.4443 8.61512C19.4603 8.66678 19.4755 8.71844 19.4897 8.7701C19.5218 8.665 19.5583 8.5599 19.5993 8.45481L20.0856 7.14022C20.0998 7.10103 20.1256 7.06896 20.163 7.04403C20.2004 7.01909 20.2414 7.00662 20.286 7.00662H20.8764ZM25.7214 5.88441V9.76138H25.3073C25.2449 9.76138 25.1924 9.75159 25.1496 9.73199C25.1069 9.71062 25.065 9.67499 25.024 9.62511L23.0922 7.16693C23.0976 7.22928 23.1011 7.29073 23.1029 7.3513C23.1065 7.41186 23.1083 7.46797 23.1083 7.51963V9.76138H22.4002V5.88441H22.8224C22.8562 5.88441 22.8847 5.88619 22.9079 5.88975C22.9328 5.89153 22.9551 5.89777 22.9747 5.90845C22.9943 5.91736 23.013 5.92983 23.0308 5.94586C23.0486 5.96189 23.0682 5.98327 23.0896 6.00999L25.0347 8.47885C25.0276 8.41117 25.0223 8.34615 25.0187 8.2838C25.0151 8.21968 25.0134 8.15911 25.0134 8.10211V5.88441H25.7214ZM27.5908 6.96387C27.7974 6.96387 27.9853 6.99682 28.1545 7.06273C28.3238 7.12864 28.4689 7.22305 28.5901 7.34595C28.7112 7.46708 28.8047 7.61493 28.8706 7.7895C28.9365 7.96406 28.9695 8.16089 28.9695 8.37999C28.9695 8.59909 28.9365 8.79681 28.8706 8.97316C28.8047 9.14773 28.7112 9.29647 28.5901 9.41938C28.4689 9.54228 28.3238 9.63669 28.1545 9.7026C27.9853 9.76851 27.7974 9.80146 27.5908 9.80146C27.3824 9.80146 27.1927 9.76851 27.0216 9.7026C26.8524 9.63669 26.7072 9.54228 26.5861 9.41938C26.465 9.29647 26.3706 9.14773 26.3029 8.97316C26.237 8.79681 26.204 8.59909 26.204 8.37999C26.204 8.16089 26.237 7.96406 26.3029 7.7895C26.3706 7.61493 26.465 7.46708 26.5861 7.34595C26.7072 7.22305 26.8524 7.12864 27.0216 7.06273C27.1927 6.99682 27.3824 6.96387 27.5908 6.96387ZM27.5908 9.24837C27.801 9.24837 27.9568 9.17623 28.0584 9.03195C28.1599 8.88588 28.2107 8.66945 28.2107 8.38266C28.2107 8.09766 28.1599 7.88301 28.0584 7.73873C27.9568 7.59266 27.801 7.51963 27.5908 7.51963C27.3752 7.51963 27.2167 7.59266 27.1152 7.73873C27.0136 7.88301 26.9629 8.09766 26.9629 8.38266C26.9629 8.66945 27.0136 8.88588 27.1152 9.03195C27.2167 9.17623 27.3752 9.24837 27.5908 9.24837ZM33.3748 7.00662L32.509 9.76138H31.9132C31.8829 9.76138 31.8553 9.75159 31.8304 9.73199C31.8072 9.7124 31.7894 9.67944 31.7769 9.63313L31.3281 8.14219C31.3102 8.08519 31.2942 8.02908 31.28 7.97386C31.2675 7.91686 31.2559 7.85986 31.2452 7.80286C31.2328 7.85986 31.2194 7.91775 31.2051 7.97653C31.1927 8.03353 31.1775 8.09053 31.1597 8.14753L30.7055 9.63313C30.6806 9.71863 30.6271 9.76138 30.5452 9.76138H29.9787L29.113 7.00662H29.7008C29.7543 7.00662 29.7988 7.01909 29.8344 7.04403C29.8718 7.06896 29.8968 7.10103 29.9093 7.14022L30.2486 8.5029C30.27 8.59019 30.2887 8.6748 30.3047 8.75674C30.3207 8.83868 30.3359 8.91972 30.3501 8.99988C30.3715 8.91972 30.3938 8.83868 30.4169 8.75674C30.4419 8.6748 30.4677 8.59019 30.4944 8.5029L30.8979 7.13487C30.9103 7.09746 30.9344 7.06629 30.97 7.04135C31.0056 7.01642 31.0475 7.00395 31.0956 7.00395H31.4216C31.4732 7.00395 31.5169 7.01642 31.5525 7.04135C31.5899 7.06629 31.6148 7.09746 31.6273 7.13487L32.0174 8.5029C32.0423 8.5884 32.0664 8.67302 32.0896 8.75674C32.1127 8.83868 32.1341 8.92151 32.1537 9.00523C32.1679 8.92329 32.1831 8.84135 32.1991 8.75941C32.2169 8.67569 32.2374 8.59019 32.2606 8.5029L32.6159 7.14022C32.6284 7.10103 32.6524 7.06896 32.6881 7.04403C32.7237 7.01909 32.7656 7.00662 32.8136 7.00662H33.3748Z" fill="white"/>
</svg>
